<svg width="100" height="100" viewBox="0 0 100 100" fill="none" xmlns="http://www.w3.org/2000/svg">
<path d="M65 50C65 53.9782 63.4196 57.7936 60.6066 60.6066C57.7936 63.4196 53.9782 65 50 65C46.0218 65 42.2064 63.4196 39.3934 60.6066C36.5803 57.7936 35 53.9782 35 50C35 49.145 35.09 48.31 35.245 47.5H30V67.485C30 68.875 31.125 70 32.515 70H67.49C68.1561 69.9987 68.7946 69.7331 69.2651 69.2616C69.7357 68.7901 70 68.1511 70 67.485V47.5H64.755C64.91 48.31 65 49.145 65 50V50ZM50 60C51.3135 59.9997 52.6142 59.7406 53.8276 59.2376C55.041 58.7347 56.1435 57.9976 57.0721 57.0686C58.0007 56.1395 58.7372 55.0367 59.2396 53.823C59.7419 52.6093 60.0003 51.3085 60 49.995C59.9997 48.6814 59.7406 47.3808 59.2376 46.1674C58.7347 44.954 57.9976 43.8515 57.0686 42.9229C56.1395 41.9943 55.0367 41.2578 53.823 40.7554C52.6093 40.2531 51.3085 39.9947 49.995 39.995C47.3422 39.9957 44.7983 41.0501 42.9229 42.9264C41.0475 44.8027 39.9943 47.3472 39.995 50C39.9957 52.6528 41.0501 55.1967 42.9264 57.0721C44.8027 58.9475 47.3472 60.0007 50 60V60ZM62 39.5H67.995C68.3933 39.5 68.7753 39.3421 69.0574 39.061C69.3395 38.7798 69.4987 38.3983 69.5 38V32.005C69.5 31.6058 69.3414 31.223 69.0592 30.9408C68.7769 30.6586 68.3941 30.5 67.995 30.5H62C61.6008 30.5 61.218 30.6586 60.9358 30.9408C60.6536 31.223 60.495 31.6058 60.495 32.005V38C60.5 38.825 61.175 39.5 62 39.5V39.5ZM50 2C37.2696 2 25.0606 7.05713 16.0589 16.0589C7.05713 25.0606 2 37.2696 2 50C2 62.7304 7.05713 74.9394 16.0589 83.9411C25.0606 92.9429 37.2696 98 50 98C56.3034 98 62.5452 96.7584 68.3688 94.3462C74.1924 91.934 79.4839 88.3983 83.9411 83.9411C88.3983 79.4839 91.934 74.1924 94.3462 68.3688C96.7584 62.5452 98 56.3034 98 50C98 43.6965 96.7584 37.4548 94.3462 31.6312C91.934 25.8076 88.3983 20.5161 83.9411 16.0589C79.4839 11.6017 74.1924 8.06601 68.3688 5.65378C62.5452 3.24156 56.3034 2 50 2V2ZM75 69.445C75 72.5 72.5 75 69.445 75H30.555C27.5 75 25 72.5 25 69.445V30.555C25 27.5 27.5 25 30.555 25H69.445C72.5 25 75 27.5 75 30.555V69.445V69.445Z" fill="white"/>
</svg>
