<svg width="100" height="100" viewBox="0 0 100 100" fill="none" xmlns="http://www.w3.org/2000/svg">
<path fill-rule="evenodd" clip-rule="evenodd" d="M100 50C100 77.6125 77.6125 100 50 100C22.3875 100 0 77.6125 0 50C0 22.3875 22.3875 0 50 0C77.6125 0 100 22.3875 100 50ZM82.0333 46.075C82.8417 47.2292 83.3 48.5917 83.35 50C83.3718 51.3778 83.003 52.7336 82.2863 53.9104C81.5695 55.0873 80.5341 56.0371 79.3 56.65C79.3583 57.3833 79.3583 58.1167 79.3 58.85C79.3 70.05 66.25 79.15 50.15 79.15C34.05 79.15 21 70.05 21 58.85C20.9437 58.1177 20.9437 57.3822 21 56.65C20.0465 56.2037 19.201 55.5562 18.5216 54.752C17.8422 53.9479 17.3449 53.0062 17.0641 51.9916C16.7832 50.977 16.7253 49.9136 16.8945 48.8746C17.0636 47.8355 17.4557 46.8454 18.0439 45.9722C18.6321 45.0991 19.4023 44.3637 20.3017 43.8166C21.2011 43.2694 22.2083 42.9235 23.2541 42.8027C24.2999 42.6818 25.3594 42.7888 26.3599 43.1163C27.3604 43.4438 28.2782 43.9841 29.05 44.7C34.8114 40.7926 41.5894 38.6549 48.55 38.55L52.25 21.2C52.2915 20.9991 52.3726 20.8085 52.4883 20.6392C52.6041 20.4699 52.7523 20.3252 52.9244 20.2136C53.0964 20.102 53.289 20.0256 53.4908 19.989C53.6926 19.9523 53.8997 19.956 54.1 20L66.35 22.45C66.9482 21.4222 67.8932 20.6413 69.0153 20.2474C70.1375 19.8535 71.3632 19.8725 72.4726 20.3009C73.582 20.7294 74.5023 21.5392 75.0684 22.585C75.6346 23.6309 75.8094 24.8443 75.5615 26.0074C75.3136 27.1705 74.6593 28.2072 73.716 28.9313C72.7726 29.6555 71.6021 30.0197 70.4144 29.9586C69.2267 29.8975 68.0997 29.4151 67.2357 28.5979C66.3717 27.7808 65.8272 26.6824 65.7 25.5L55 23.25L51.75 38.85C58.626 38.9975 65.3121 41.1336 71 45C71.7593 44.27 72.6677 43.713 73.6627 43.3674C74.6577 43.0217 75.7157 42.8957 76.7641 42.9978C77.8125 43.1 78.8263 43.4279 79.7359 43.9591C80.6455 44.4903 81.4292 45.2121 82.0333 46.075ZM34.1917 52.2208C33.8267 52.7669 33.5729 53.3795 33.4447 54.0237C33.3164 54.6679 33.3164 55.331 33.4444 55.9752C33.7031 57.2762 34.468 58.4212 35.5708 59.1583C36.6737 59.8954 38.0242 60.1642 39.3252 59.9056C39.9694 59.7775 40.5821 59.5238 41.1283 59.1589C41.6744 58.7941 42.1434 58.3252 42.5083 57.7792C43.2454 56.6763 43.5142 55.3258 43.2556 54.0248C42.9969 52.7237 42.232 51.5787 41.1292 50.8417C40.0263 50.1046 38.6758 49.8358 37.3748 50.0944C36.0737 50.3531 34.9287 51.118 34.1917 52.2208ZM50.05 72.6C54.4875 72.7833 58.8542 71.625 62.4 68.95C62.6652 68.6914 62.8168 68.3381 62.8215 67.9677C62.8262 67.5973 62.6836 67.2402 62.425 66.975C62.297 66.8437 62.1443 66.7389 61.9758 66.6665C61.8072 66.5942 61.6261 66.5558 61.4427 66.5535C61.0723 66.5488 60.7152 66.6914 60.45 66.95C57.4155 69.1268 53.729 70.2028 50 70C46.2756 70.1664 42.6061 69.055 39.6 66.85C39.3409 66.6374 39.0121 66.5287 38.6773 66.5452C38.3426 66.5616 38.0259 66.702 37.7889 66.9389C37.552 67.1759 37.4116 67.4926 37.3952 67.8273C37.3787 68.1621 37.4874 68.4909 37.7 68.75C41.2474 71.4233 45.6119 72.7839 50.05 72.6ZM58.7208 59.3583C59.5458 59.9083 60.4625 60.4 61.45 60.4C62.1281 60.4079 62.8008 60.2777 63.427 60.0172C64.0532 59.7568 64.6198 59.3715 65.0923 58.885C65.5647 58.3985 65.9332 57.8209 66.1752 57.1873C66.4173 56.5538 66.5278 55.8776 66.5 55.2C66.4997 54.3363 66.2756 53.4875 65.8497 52.7361C65.4238 51.9848 64.8105 51.3566 64.0696 50.9127C63.3288 50.4688 62.4855 50.2244 61.6221 50.2034C60.7587 50.1823 59.9046 50.3852 59.1429 50.7923C58.3812 51.1995 57.738 51.797 57.2759 52.5266C56.8138 53.2563 56.5486 54.0932 56.5061 54.9558C56.4636 55.8184 56.6452 56.6773 57.0334 57.4489C57.4215 58.2204 58.0029 58.8783 58.7208 59.3583Z" fill="white"/>
</svg>
