<svg width="100" height="100" viewBox="0 0 100 100" fill="none" xmlns="http://www.w3.org/2000/svg">
<circle cx="50" cy="50" r="50" fill="white"/>
<g clip-path="url(#clip0)">
<path d="M69.5771 28.3649C65.5927 26.5681 61.3219 25.2399 56.8557 24.4847C56.816 24.4771 56.7748 24.482 56.7379 24.4988C56.7011 24.5156 56.6704 24.5435 56.65 24.5785C56.1031 25.5394 55.4938 26.792 55.0667 27.7816C50.33 27.0739 45.5144 27.0739 40.7776 27.7816C40.3019 26.6849 39.7655 25.6155 39.1708 24.5785C39.1507 24.543 39.1202 24.5146 39.0834 24.4969C39.0467 24.4792 39.0054 24.4731 38.9651 24.4795C34.5016 25.2347 30.2307 26.5629 26.2438 28.3623C26.2095 28.3767 26.1804 28.4013 26.1604 28.4327C18.0563 40.3467 15.8349 51.9665 16.9261 63.4405C16.9291 63.4686 16.9378 63.4958 16.9517 63.5204C16.9656 63.545 16.9843 63.5665 17.0068 63.5837C21.737 67.0275 27.0129 69.6509 32.6136 71.3441C32.6526 71.3561 32.6944 71.3561 32.7334 71.344C32.7724 71.3319 32.8069 71.3084 32.8323 71.2764C34.0354 69.6618 35.1083 67.9561 36.025 66.1644C36.0797 66.0603 36.0276 65.9353 35.9182 65.8936C34.236 65.2601 32.606 64.4956 31.0432 63.6071C31.0152 63.5911 30.9915 63.5684 30.9744 63.5409C30.9573 63.5135 30.9472 63.4823 30.9452 63.45C30.9431 63.4177 30.9491 63.3854 30.9626 63.3561C30.976 63.3267 30.9966 63.3011 31.0224 63.2816C31.3505 63.0394 31.6787 62.7868 31.9912 62.5342C32.0193 62.5115 32.0532 62.497 32.089 62.4924C32.1249 62.4878 32.1613 62.4933 32.1943 62.5082C42.4208 67.1019 53.4964 67.1019 63.6031 62.5082C63.6362 62.4924 63.673 62.4862 63.7094 62.4904C63.7457 62.4945 63.7802 62.5088 63.8089 62.5316C64.1214 62.7868 64.4469 63.0394 64.7776 63.2816C64.8037 63.3007 64.8246 63.3259 64.8385 63.3551C64.8524 63.3842 64.8589 63.4163 64.8573 63.4486C64.8558 63.4808 64.8463 63.5122 64.8296 63.5399C64.813 63.5675 64.7898 63.5906 64.762 63.6071C63.2047 64.503 61.5849 65.2608 59.8844 65.891C59.8583 65.9005 59.8345 65.9154 59.8146 65.9348C59.7947 65.9542 59.7792 65.9777 59.7691 66.0035C59.759 66.0294 59.7545 66.0572 59.756 66.0849C59.7575 66.1126 59.7648 66.1398 59.7776 66.1644C60.7151 67.9535 61.788 69.6566 62.9677 71.2738C62.9923 71.307 63.0264 71.3318 63.0656 71.3448C63.1047 71.3579 63.1469 71.3585 63.1865 71.3467C68.7968 69.6583 74.0813 67.0336 78.8167 63.5837C78.8398 63.5675 78.8592 63.5466 78.8735 63.5224C78.8879 63.4981 78.8969 63.4711 78.9 63.4431C80.2021 50.1774 76.7177 38.6514 69.6578 28.4379C69.6405 28.4047 69.6119 28.3788 69.5771 28.3649ZM37.5537 56.4535C34.4755 56.4535 31.9365 53.6696 31.9365 50.2556C31.9365 46.8389 34.4261 44.0577 37.5537 44.0577C40.7047 44.0577 43.2203 46.8623 43.1708 50.2556C43.1708 53.6722 40.6813 56.4535 37.5537 56.4535ZM58.3219 56.4535C55.2412 56.4535 52.7047 53.6696 52.7047 50.2556C52.7047 46.8389 55.1917 44.0577 58.3219 44.0577C61.4729 44.0577 63.9886 46.8623 63.9391 50.2556C63.9391 53.6722 61.4755 56.4535 58.3219 56.4535Z" fill="#9A85FF"/>
</g>
<defs>
<clipPath id="clip0">
<rect width="62.5" height="62.5" fill="white" transform="translate(16.667 16.667)"/>
</clipPath>
</defs>
</svg>
