<svg width="100" height="100" viewBox="0 0 100 100" fill="none" xmlns="http://www.w3.org/2000/svg">
<circle cx="50" cy="50" r="50" fill="white"/>
<path d="M76.3526 35.197C74.3722 36.0512 72.2171 36.6661 69.9972 36.9055C72.3019 35.5363 74.0278 33.3732 74.8511 30.822C72.6884 32.1085 70.3192 33.0106 67.8485 33.4884C66.8159 32.3844 65.567 31.505 64.1796 30.9048C62.7923 30.3047 61.2962 29.9967 59.7846 30C53.6686 30 48.75 34.9575 48.75 41.0411C48.75 41.8954 48.8535 42.7497 49.0218 43.5716C39.8641 43.0927 31.6966 38.7177 26.2666 32.0193C25.2773 33.7092 24.7588 35.6333 24.7652 37.5916C24.7652 41.4229 26.7132 44.8012 29.6838 46.7881C27.9332 46.7192 26.2236 46.238 24.694 45.3837V45.5196C24.694 50.8848 28.4865 55.331 33.541 56.3536C32.592 56.6001 31.6157 56.7262 30.6352 56.7289C29.9168 56.7289 29.2372 56.6577 28.5512 56.5607C29.9491 60.9357 34.02 64.1134 38.8674 64.2169C35.0749 67.1875 30.3245 68.9349 25.1664 68.9349C24.2409 68.9349 23.3866 68.9026 22.5 68.799C27.3927 71.9379 33.198 73.75 39.4499 73.75C59.7457 73.75 70.8515 56.936 70.8515 42.3419C70.8515 41.863 70.8515 41.3841 70.8191 40.9052C72.9678 39.3325 74.8511 37.3845 76.3526 35.197Z" fill="#9883FF"/>
</svg>
